<svg width="12" height="12" viewBox="0 0 12 12" fill="none" xmlns="http://www.w3.org/2000/svg">
<path d="M5.40003 6L7.35003 7.95C7.4417 8.04167 7.48753 8.15833 7.48753 8.3C7.48753 8.44167 7.4417 8.55833 7.35003 8.65C7.25837 8.74167 7.1417 8.7875 7.00003 8.7875C6.85837 8.7875 6.7417 8.74167 6.65003 8.65L4.35003 6.35C4.30003 6.3 4.2647 6.24583 4.24403 6.1875C4.22337 6.12917 4.21287 6.06667 4.21253 6C4.2122 5.93333 4.2227 5.87083 4.24403 5.8125C4.26537 5.75417 4.3007 5.7 4.35003 5.65L6.65003 3.35C6.7417 3.25833 6.85837 3.2125 7.00003 3.2125C7.1417 3.2125 7.25837 3.25833 7.35003 3.35C7.4417 3.44167 7.48753 3.55833 7.48753 3.7C7.48753 3.84167 7.4417 3.95833 7.35003 4.05L5.40003 6Z" fill="black"/>
</svg>
