<svg width="24" height="24" viewBox="0 0 24 24" fill="none" xmlns="http://www.w3.org/2000/svg">
<path d="M11.9999 16L9.19992 17.2C8.75547 17.3889 8.33325 17.3529 7.93325 17.092C7.53325 16.8311 7.33325 16.4616 7.33325 15.9833V7.33334C7.33325 6.96667 7.46392 6.65289 7.72525 6.392C7.98659 6.13111 8.30036 6.00045 8.66659 6H11.9999C12.1888 6 12.3473 6.064 12.4753 6.192C12.6033 6.32 12.667 6.47822 12.6666 6.66667C12.6661 6.85511 12.6021 7.01356 12.4746 7.142C12.347 7.27045 12.1888 7.33422 11.9999 7.33334H8.66659V15.9667L11.9999 14.5333L15.3333 15.9667V12C15.3333 11.8111 15.3973 11.6529 15.5253 11.5253C15.6533 11.3978 15.8115 11.3338 15.9999 11.3333C16.1884 11.3329 16.3468 11.3969 16.4753 11.5253C16.6037 11.6538 16.6675 11.812 16.6666 12V15.9833C16.6666 16.4611 16.4666 16.8307 16.0666 17.092C15.6666 17.3533 15.2444 17.3893 14.7999 17.2L11.9999 16ZM11.9999 7.33334H8.66659H12.6666H11.9999ZM15.3333 8.66667H14.6666C14.4777 8.66667 14.3195 8.60267 14.1919 8.47467C14.0644 8.34667 14.0004 8.18845 13.9999 8C13.9995 7.81156 14.0635 7.65334 14.1919 7.52534C14.3204 7.39734 14.4786 7.33334 14.6666 7.33334H15.3333V6.66667C15.3333 6.47778 15.3973 6.31956 15.5253 6.192C15.6533 6.06445 15.8115 6.00045 15.9999 6C16.1884 5.99956 16.3468 6.06356 16.4753 6.192C16.6037 6.32045 16.6675 6.47867 16.6666 6.66667V7.33334H17.3333C17.5221 7.33334 17.6806 7.39734 17.8086 7.52534C17.9366 7.65334 18.0004 7.81156 17.9999 8C17.9995 8.18845 17.9355 8.34689 17.8079 8.47534C17.6804 8.60378 17.5221 8.66756 17.3333 8.66667H16.6666V9.33334C16.6666 9.52222 16.6026 9.68067 16.4746 9.80867C16.3466 9.93667 16.1884 10.0004 15.9999 10C15.8115 9.99956 15.6533 9.93556 15.5253 9.808C15.3973 9.68045 15.3333 9.52222 15.3333 9.33334V8.66667Z" fill="black"/>
</svg>
