<svg width="16" height="16" viewBox="0 0 16 16" fill="none" xmlns="http://www.w3.org/2000/svg">
<path d="M11.8833 4.11667L13.7666 2.23333C13.8999 2.1 14.0584 2.03333 14.2419 2.03333C14.4255 2.03333 14.5837 2.1 14.7166 2.23333C14.8495 2.36667 14.9161 2.52511 14.9166 2.70867C14.917 2.89222 14.8504 3.05044 14.7166 3.18333L12.3499 5.53333C12.2166 5.66667 12.061 5.73333 11.8833 5.73333C11.7055 5.73333 11.5499 5.66667 11.4166 5.53333L10.4666 4.58333C10.3444 4.46111 10.2833 4.30844 10.2833 4.12533C10.2833 3.94222 10.3444 3.78378 10.4666 3.65C10.5999 3.51667 10.7584 3.45 10.9419 3.45C11.1255 3.45 11.2837 3.51667 11.4166 3.65L11.8833 4.11667ZM7.99992 12L5.19992 13.2C4.75547 13.3889 4.33325 13.3529 3.93325 13.092C3.53325 12.8311 3.33325 12.4616 3.33325 11.9833V3.33333C3.33325 2.96667 3.46392 2.65289 3.72525 2.392C3.98659 2.13111 4.30036 2.00044 4.66659 2H8.41659C8.61659 2 8.76659 2.08889 8.86659 2.26667C8.96659 2.44444 8.97214 2.62778 8.88325 2.81667C8.80547 3.00556 8.74992 3.19444 8.71659 3.38333C8.68325 3.57222 8.66659 3.77778 8.66659 4C8.66659 4.8 8.91947 5.50556 9.42525 6.11667C9.93103 6.72778 10.567 7.11111 11.3333 7.26667C11.4666 7.28889 11.5861 7.30289 11.6919 7.30867C11.7977 7.31444 11.9004 7.31711 11.9999 7.31667C12.1888 7.31667 12.3473 7.37511 12.4753 7.492C12.6033 7.60889 12.667 7.756 12.6666 7.93333V11.9833C12.6666 12.4611 12.4666 12.8307 12.0666 13.092C11.6666 13.3533 11.2444 13.3893 10.7999 13.2L7.99992 12Z" fill="black"/>
</svg>
