<svg width="16" height="16" viewBox="0 0 16 16" fill="none" xmlns="http://www.w3.org/2000/svg">
<g clip-path="url(#clip0_7_1793)">
<mask id="mask0_7_1793" style="mask-type:luminance" maskUnits="userSpaceOnUse" x="0" y="0" width="16" height="16">
<path d="M0 0H16V16H0V0Z" fill="white"/>
</mask>
<g mask="url(#mask0_7_1793)">
<path d="M12.2 3.80666C12.1384 3.74486 12.0651 3.69583 11.9844 3.66237C11.9038 3.62892 11.8173 3.6117 11.73 3.6117C11.6427 3.6117 11.5563 3.62892 11.4756 3.66237C11.395 3.69583 11.3217 3.74486 11.26 3.80666L8.00003 7.06L4.74003 3.8C4.67831 3.73828 4.60503 3.68932 4.52439 3.65591C4.44375 3.62251 4.35731 3.60532 4.27003 3.60532C4.18274 3.60532 4.09631 3.62251 4.01566 3.65591C3.93502 3.68932 3.86175 3.73828 3.80003 3.8C3.73831 3.86172 3.68935 3.93499 3.65594 4.01563C3.62254 4.09628 3.60535 4.18271 3.60535 4.27C3.60535 4.35728 3.62254 4.44372 3.65594 4.52436C3.68935 4.605 3.73831 4.67828 3.80003 4.74L7.06003 8L3.80003 11.26C3.73831 11.3217 3.68935 11.395 3.65594 11.4756C3.62254 11.5563 3.60535 11.6427 3.60535 11.73C3.60535 11.8173 3.62254 11.9037 3.65594 11.9844C3.68935 12.065 3.73831 12.1383 3.80003 12.2C3.86175 12.2617 3.93502 12.3107 4.01566 12.3441C4.09631 12.3775 4.18274 12.3947 4.27003 12.3947C4.35731 12.3947 4.44375 12.3775 4.52439 12.3441C4.60503 12.3107 4.67831 12.2617 4.74003 12.2L8.00003 8.94L11.26 12.2C11.3217 12.2617 11.395 12.3107 11.4757 12.3441C11.5563 12.3775 11.6427 12.3947 11.73 12.3947C11.8173 12.3947 11.9037 12.3775 11.9844 12.3441C12.065 12.3107 12.1383 12.2617 12.2 12.2C12.2617 12.1383 12.3107 12.065 12.3441 11.9844C12.3775 11.9037 12.3947 11.8173 12.3947 11.73C12.3947 11.6427 12.3775 11.5563 12.3441 11.4756C12.3107 11.395 12.2617 11.3217 12.2 11.26L8.94003 8L12.2 4.74C12.4534 4.48666 12.4534 4.06 12.2 3.80666Z" fill="black"/>
</g>
</g>
<defs>
<clipPath id="clip0_7_1793">
<rect width="16" height="16" fill="white"/>
</clipPath>
</defs>
</svg>
