<svg width="14" height="16" viewBox="0 0 14 16" fill="none" xmlns="http://www.w3.org/2000/svg">
<path d="M6.1875 9.6H7.8125V7.2H10.25V5.6H7.8125V3.2H6.1875V5.6H3.75V7.2H6.1875V9.6ZM7 13.88C8.65208 12.3867 9.8776 11.0301 10.6766 9.8104C11.4755 8.59067 11.875 7.5072 11.875 6.56C11.875 5.10667 11.4046 3.9168 10.4637 2.9904C9.52281 2.064 8.36825 1.60053 7 1.6C5.63175 1.59947 4.47746 2.06293 3.53712 2.9904C2.59679 3.91787 2.12608 5.10773 2.125 6.56C2.125 7.50667 2.52448 8.59013 3.32344 9.8104C4.1224 11.0307 5.34792 12.3872 7 13.88ZM7 16C4.81979 14.1733 3.19154 12.4768 2.11525 10.9104C1.03896 9.344 0.500542 7.89387 0.5 6.56C0.5 4.56 1.15352 2.96667 2.46056 1.78C3.7676 0.593333 5.28075 0 7 0C8.71925 0 10.2327 0.593333 11.5402 1.78C12.8478 2.96667 13.5011 4.56 13.5 6.56C13.5 7.89333 12.9619 9.34347 11.8856 10.9104C10.8093 12.4773 9.18075 14.1739 7 16Z" fill="black"/>
</svg>
