<svg width="24" height="24" viewBox="0 0 24 24" fill="none" xmlns="http://www.w3.org/2000/svg">
<path d="M9.08326 8.26667L10.9499 5.85C11.0833 5.67222 11.2417 5.54178 11.4253 5.45867C11.6088 5.37555 11.8004 5.33378 11.9999 5.33333C12.1995 5.33289 12.3913 5.37467 12.5753 5.45867C12.7593 5.54267 12.9175 5.67311 13.0499 5.85L14.9166 8.26667L17.7499 9.21667C18.0388 9.30555 18.2666 9.46955 18.4333 9.70866C18.5999 9.94778 18.6833 10.2116 18.6833 10.5C18.6833 10.6333 18.6637 10.7667 18.6246 10.9C18.5855 11.0333 18.5217 11.1611 18.4333 11.2833L16.5999 13.8833L16.6666 16.6167C16.6777 17.0056 16.5499 17.3333 16.2833 17.6C16.0166 17.8667 15.7055 18 15.3499 18C15.3277 18 15.2055 17.9833 14.9833 17.95L11.9999 17.1167L9.01659 17.95C8.96104 17.9722 8.89993 17.9862 8.83326 17.992C8.76659 17.9978 8.70548 18.0004 8.64993 18C8.29437 18 7.98326 17.8667 7.71659 17.6C7.44993 17.3333 7.32215 17.0056 7.33326 16.6167L7.39993 13.8667L5.58326 11.2833C5.49437 11.1611 5.43037 11.0333 5.39126 10.9C5.35215 10.7667 5.33281 10.6333 5.33326 10.5C5.33326 10.2222 5.41393 9.964 5.57526 9.72533C5.73659 9.48667 5.96148 9.31711 6.24993 9.21667L9.08326 8.26667ZM9.89993 9.41667L6.66659 10.4833L8.73326 13.4667L8.66659 16.65L11.9999 15.7333L15.3333 16.6667L15.2666 13.4667L17.3333 10.5167L14.0999 9.41667L11.9999 6.66667L9.89993 9.41667Z" fill="black"/>
</svg>
